<svg xmlns="http://www.w3.org/2000/svg" viewBox="0 10.369999885559082 395.3699951171875 48.290000915527344" data-asc="0.96875" width="395.3699951171875" height="48.290000915527344"><defs/><g><g fill="#212121"><g transform="translate(0, 0)"><path d="M0 48.44L0 12.07L12.96 12.07Q17.19 12.07 19.98 13.53Q22.78 14.99 24.17 17.55Q25.55 20.12 25.55 23.47Q25.55 26.81 24.16 29.34Q22.76 31.87 19.97 33.27Q17.17 34.68 12.94 34.68L3.13 34.68L3.13 29.95L12.45 29.95Q15.11 29.95 16.79 29.19Q18.47 28.43 19.25 26.97Q20.03 25.51 20.03 23.47Q20.03 21.41 19.24 19.90Q18.45 18.39 16.77 17.59Q15.09 16.78 12.38 16.78L5.49 16.78L5.49 48.44L0 48.44M17.95 32.03L26.94 48.44L20.69 48.44L11.88 32.03L17.95 32.03ZM39.75 49.04Q37.16 49.04 35.07 48.07Q32.97 47.11 31.76 45.26Q30.54 43.41 30.54 40.73Q30.54 38.42 31.43 36.93Q32.32 35.44 33.82 34.57Q35.33 33.70 37.20 33.26Q39.06 32.81 41.00 32.58Q43.45 32.30 44.98 32.11Q46.50 31.92 47.19 31.50Q47.89 31.07 47.89 30.11L47.89 29.99Q47.89 27.66 46.58 26.38Q45.28 25.11 42.70 25.11Q40.02 25.11 38.49 26.29Q36.95 27.47 36.36 28.91L31.37 27.77Q32.26 25.28 33.98 23.75Q35.69 22.21 37.93 21.51Q40.16 20.81 42.63 20.81Q44.26 20.81 46.10 21.19Q47.94 21.57 49.55 22.59Q51.15 23.60 52.18 25.47Q53.21 27.34 53.21 30.33L53.21 48.44L48.03 48.44L48.03 44.71L47.82 44.71Q47.30 45.74 46.27 46.73Q45.24 47.73 43.63 48.38Q42.01 49.04 39.75 49.04M40.91 44.78Q43.11 44.78 44.68 43.91Q46.25 43.04 47.08 41.63Q47.90 40.22 47.90 38.60L47.90 35.09Q47.62 35.37 46.81 35.61Q46.00 35.85 44.98 36.02Q43.95 36.19 42.97 36.32Q41.99 36.45 41.34 36.54Q39.79 36.74 38.52 37.20Q37.25 37.66 36.50 38.52Q35.74 39.38 35.74 40.80Q35.74 42.77 37.20 43.78Q38.65 44.78 40.91 44.78ZM63.64 58.66Q62.45 58.66 61.47 58.48Q60.49 58.29 60.01 58.08L61.29 53.73Q62.75 54.12 63.88 54.07Q65.02 54.01 65.90 53.21Q66.78 52.41 67.45 50.60L68.11 48.79L58.13 21.16L63.81 21.16L70.72 42.33L71.00 42.33L77.91 21.16L83.61 21.16L72.37 52.08Q71.59 54.21 70.38 55.69Q69.18 57.17 67.51 57.92Q65.84 58.66 63.64 58.66ZM96.54 49.04Q93.95 49.04 91.85 48.07Q89.75 47.11 88.54 45.26Q87.32 43.41 87.32 40.73Q87.32 38.42 88.21 36.93Q89.10 35.44 90.61 34.57Q92.12 33.70 93.98 33.26Q95.85 32.81 97.78 32.58Q100.23 32.30 101.76 32.11Q103.28 31.92 103.98 31.50Q104.67 31.07 104.67 30.11L104.67 29.99Q104.67 27.66 103.36 26.38Q102.06 25.11 99.49 25.11Q96.80 25.11 95.27 26.29Q93.73 27.47 93.15 28.91L88.16 27.77Q89.04 25.28 90.76 23.75Q92.47 22.21 94.71 21.51Q96.95 20.81 99.41 20.81Q101.05 20.81 102.89 21.19Q104.72 21.57 106.33 22.59Q107.94 23.60 108.97 25.47Q110.00 27.34 110.00 30.33L110.00 48.44L104.81 48.44L104.81 44.71L104.60 44.71Q104.08 45.74 103.05 46.73Q102.02 47.73 100.41 48.38Q98.79 49.04 96.54 49.04M97.69 44.78Q99.89 44.78 101.46 43.91Q103.04 43.04 103.86 41.63Q104.69 40.22 104.69 38.60L104.69 35.09Q104.40 35.37 103.60 35.61Q102.79 35.85 101.76 36.02Q100.73 36.19 99.75 36.32Q98.77 36.45 98.12 36.54Q96.57 36.74 95.30 37.20Q94.03 37.66 93.28 38.52Q92.52 39.38 92.52 40.80Q92.52 42.77 93.98 43.78Q95.44 44.78 97.69 44.78ZM122.37 32.24L122.37 48.44L117.06 48.44L117.06 21.16L122.16 21.16L122.16 25.60L122.50 25.60Q123.44 23.44 125.45 22.12Q127.47 20.81 130.54 20.81Q133.33 20.81 135.42 21.97Q137.52 23.14 138.67 25.43Q139.83 27.72 139.83 31.09L139.83 48.44L134.52 48.44L134.52 31.73Q134.52 28.76 132.97 27.09Q131.43 25.41 128.73 25.41Q126.88 25.41 125.45 26.21Q124.02 27.01 123.20 28.54Q122.37 30.08 122.37 32.24ZM150.96 12.07L150.96 25.02L146.56 25.02L146.56 12.07L150.96 12.07ZM178.23 27.82L173.42 28.68Q173.12 27.75 172.47 26.92Q171.82 26.08 170.72 25.55Q169.62 25.02 167.97 25.02Q165.71 25.02 164.20 26.02Q162.70 27.02 162.70 28.60Q162.70 29.97 163.71 30.81Q164.72 31.64 166.97 32.17L171.31 33.17Q175.07 34.04 176.92 35.85Q178.76 37.66 178.76 40.55Q178.76 43.00 177.35 44.91Q175.94 46.82 173.43 47.90Q170.92 48.99 167.61 48.99Q163.03 48.99 160.14 47.03Q157.24 45.06 156.59 41.44L161.72 40.66Q162.20 42.67 163.69 43.69Q165.18 44.71 167.58 44.71Q170.19 44.71 171.75 43.62Q173.31 42.52 173.31 40.94Q173.31 39.67 172.36 38.80Q171.41 37.93 169.46 37.48L164.84 36.47Q161.03 35.60 159.21 33.70Q157.39 31.80 157.39 28.89Q157.39 26.47 158.74 24.66Q160.09 22.85 162.46 21.83Q164.84 20.81 167.92 20.81Q172.34 20.81 174.88 22.72Q177.41 24.63 178.23 27.82ZM198.26 48.44L198.26 12.07L211.22 12.07Q215.47 12.07 218.25 13.62Q221.04 15.16 222.43 17.84Q223.81 20.51 223.81 23.85Q223.81 27.20 222.42 29.87Q221.02 32.55 218.23 34.10Q215.43 35.65 211.20 35.65L202.29 35.65L202.29 31.00L210.71 31.00Q213.39 31.00 215.06 30.07Q216.73 29.14 217.51 27.52Q218.29 25.91 218.29 23.85Q218.29 21.79 217.51 20.19Q216.73 18.59 215.05 17.68Q213.37 16.78 210.64 16.78L203.75 16.78L203.75 48.44L198.26 48.44ZM241.28 48.99Q237.45 48.99 234.59 47.23Q231.73 45.47 230.15 42.31Q228.57 39.15 228.57 34.93Q228.57 30.68 230.15 27.50Q231.73 24.33 234.59 22.57Q237.45 20.81 241.28 20.81Q245.12 20.81 247.98 22.57Q250.83 24.33 252.41 27.50Q254.00 30.68 254.00 34.93Q254.00 39.15 252.41 42.31Q250.83 45.47 247.98 47.23Q245.12 48.99 241.28 48.99M241.30 44.53Q243.79 44.53 245.42 43.22Q247.05 41.90 247.84 39.72Q248.63 37.54 248.63 34.91Q248.63 32.30 247.84 30.10Q247.05 27.91 245.42 26.58Q243.79 25.25 241.30 25.25Q238.80 25.25 237.15 26.58Q235.51 27.91 234.72 30.10Q233.93 32.30 233.93 34.91Q233.93 37.54 234.72 39.72Q235.51 41.90 237.15 43.22Q238.80 44.53 241.30 44.53ZM259.91 48.44L259.91 21.16L265.04 21.16L265.04 25.50L265.32 25.50Q266.07 23.30 267.96 22.03Q269.85 20.76 272.25 20.76Q272.75 20.76 273.43 20.79Q274.11 20.83 274.50 20.88L274.50 25.96Q274.18 25.87 273.37 25.75Q272.55 25.64 271.73 25.64Q269.85 25.64 268.39 26.43Q266.92 27.22 266.07 28.61Q265.22 30.01 265.22 31.78L265.22 48.44L259.91 48.44ZM291.85 21.16L291.85 25.43L276.95 25.43L276.95 21.16L291.85 21.16M280.95 14.63L286.26 14.63L286.26 40.43Q286.26 41.97 286.72 42.75Q287.18 43.52 287.92 43.79Q288.65 44.07 289.52 44.07Q290.16 44.07 290.64 43.98Q291.12 43.89 291.39 43.84L292.35 48.22Q291.89 48.40 291.03 48.59Q290.18 48.77 288.90 48.79Q286.81 48.83 285.00 48.05Q283.19 47.27 282.07 45.63Q280.95 44.00 280.95 41.53L280.95 14.63ZM310.69 21.16L310.69 25.43L295.28 25.43L295.28 21.16L310.69 21.16M299.50 48.44L299.50 18.00Q299.50 15.45 300.62 13.75Q301.74 12.06 303.59 11.21Q305.43 10.37 307.60 10.37Q309.20 10.37 310.33 10.63Q311.47 10.88 312.02 11.10L310.78 15.39Q310.40 15.29 309.82 15.14Q309.23 14.99 308.40 14.99Q306.46 14.99 305.64 15.94Q304.81 16.90 304.81 18.71L304.81 48.44L299.50 48.44ZM327.65 48.99Q323.81 48.99 320.95 47.23Q318.09 45.47 316.51 42.31Q314.93 39.15 314.93 34.93Q314.93 30.68 316.51 27.50Q318.09 24.33 320.95 22.57Q323.81 20.81 327.65 20.81Q331.48 20.81 334.34 22.57Q337.20 24.33 338.78 27.50Q340.36 30.68 340.36 34.93Q340.36 39.15 338.78 42.31Q337.20 45.47 334.34 47.23Q331.48 48.99 327.65 48.99M327.66 44.53Q330.15 44.53 331.78 43.22Q333.42 41.90 334.21 39.72Q335.00 37.54 335.00 34.91Q335.00 32.30 334.21 30.10Q333.42 27.91 331.78 26.58Q330.15 25.25 327.66 25.25Q325.16 25.25 323.52 26.58Q321.88 27.91 321.08 30.10Q320.29 32.30 320.29 34.91Q320.29 37.54 321.08 39.72Q321.88 41.90 323.52 43.22Q325.16 44.53 327.66 44.53ZM351.58 12.07L351.58 48.44L346.27 48.44L346.27 12.07L351.58 12.07ZM358.72 48.44L358.72 21.16L364.03 21.16L364.03 48.44L358.72 48.44M361.40 16.96Q360.01 16.96 359.03 16.02Q358.04 15.09 358.04 13.80Q358.04 12.48 359.03 11.55Q360.01 10.62 361.40 10.62Q362.78 10.62 363.77 11.55Q364.75 12.48 364.75 13.80Q364.75 15.09 363.77 16.02Q362.78 16.96 361.40 16.96ZM382.65 48.99Q378.82 48.99 375.96 47.23Q373.10 45.47 371.52 42.31Q369.94 39.15 369.94 34.93Q369.94 30.68 371.52 27.50Q373.10 24.33 375.96 22.57Q378.82 20.81 382.65 20.81Q386.49 20.81 389.35 22.57Q392.21 24.33 393.79 27.50Q395.37 30.68 395.37 34.93Q395.37 39.15 393.79 42.31Q392.21 45.47 389.35 47.23Q386.49 48.99 382.65 48.99M382.67 44.53Q385.16 44.53 386.79 43.22Q388.42 41.90 389.21 39.72Q390.00 37.54 390.00 34.91Q390.00 32.30 389.21 30.10Q388.42 27.91 386.79 26.58Q385.16 25.25 382.67 25.25Q380.17 25.25 378.52 26.58Q376.88 27.91 376.09 30.10Q375.30 32.30 375.30 34.91Q375.30 37.54 376.09 39.72Q376.88 41.90 378.52 43.22Q380.17 44.53 382.67 44.53Z"/></g></g></g></svg>